<?xml version="1.0" encoding="UTF-8" standalone="no"?>
<svg
   width="271.46228"
   height="271.46201"
   viewBox="0 0 271.46227 271.46201"
   version="1.2"
   id="svg12"
   xmlns="http://www.w3.org/2000/svg"
   xmlns:svg="http://www.w3.org/2000/svg">
  <defs
     id="defs12" />
  <g
     id="surface11262"
     transform="translate(-44.268867,-18.760324)">
    <rect
       style="fill:#f9f9f9;stroke:none;stroke-width:9.04584;stroke-linecap:square;stroke-dasharray:none"
       id="rect14"
       width="271.46228"
       height="271.46201"
       x="44.268867"
       y="18.760324"
       ry="28.904814"
       rx="28.612598" />
    <path
       id="path14"
       style="fill:none;stroke:#000000;stroke-width:9;stroke-linecap:round;stroke-linejoin:round;stroke-miterlimit:10;stroke-dasharray:none;stroke-opacity:1"
       d="m 140,204.49133 c 0,0 80,0 80,0 M 189.99791,44.491327 c 0,0 0,0 -30.00628,0 0,0 0,0 40.00837,0 m 0,0 c 0,0 20,0 20,20 m -80,0 c 0,0 0,-20 20,-20 M 140,164.49133 c 0,0 80,0 80,0 m -80,-40 c 0,0 80,0 80,0 M 200,64.491327 c 0,0 0,0 -60,0 0,0 0,0 80,0 m 40,20 c 0,0 0,-20 -20,-20 m -140,20 c 0,0 0,-20 20,-20 M 260,244.49133 c 0,0 0,0 0,-140 m -140,160 c 0,0 120,0 120,0 0,0 20,0 20,-20 m -160,-60 c 0,0 0,60 0,60 0,0 0,20 20,20 m -20,-160 c 0,0 0,0 0,80" />
  </g>
</svg>
